{
  "accessors": [
    {
      "name": "J1_1-Mesh_0_positions",
      "componentType": 5126,
      "count": 7908,
      "min": [
        -3.988100051879883,
        -8.309473680694675e-16,
        -4.027100086212158
      ],
      "max": [
        7.9527997970581055,
        10.137800216674805,
        4.027100086212158
      ],
      "type": "VEC3",
      "bufferView": 0,
      "byteOffset": 0
    },
    {
      "name": "J1_1-Mesh_0_normals",
      "componentType": 5126,
      "count": 7908,
      "min": [
        -1,
        -1,
        -1
      ],
      "max": [
        1,
        1,
        1
      ],
      "type": "VEC3",
      "bufferView": 1,
      "byteOffset": 0
    },
    {
      "name": "J1_1-Mesh_0_indices",
      "componentType": 5123,
      "count": 7908,
      "min": [
        0
      ],
      "max": [
        7907
      ],
      "type": "SCALAR",
      "bufferView": 2,
      "byteOffset": 0
    },
    {
      "name": "J2_1-Mesh_0_positions",
      "componentType": 5126,
      "count": 7902,
      "min": [
        -4.520299911499023,
        9.937100410461426,
        -4.535900115966797
      ],
      "max": [
        4.530300140380859,
        17.156099319458008,
        4.54449987411499
      ],
      "type": "VEC3",
      "bufferView": 0,
      "byteOffset": 94896
    },
    {
      "name": "J2_1-Mesh_0_normals",
      "componentType": 5126,
      "count": 7902,
      "min": [
        -0.9999901652336121,
        -1,
        -1
      ],
      "max": [
        1,
        1,
        1
      ],
      "type": "VEC3",
      "bufferView": 1,
      "byteOffset": 94896
    },
    {
      "name": "J2_1-Mesh_0_indices",
      "componentType": 5123,
      "count": 7902,
      "min": [
        0
      ],
      "max": [
        7901
      ],
      "type": "SCALAR",
      "bufferView": 2,
      "byteOffset": 15816
    },
    {
      "name": "J3_1-Mesh_0_positions",
      "componentType": 5126,
      "count": 7908,
      "min": [
        -3.244800090789795,
        10.67240047454834,
        -4.370100021362305
      ],
      "max": [
        3.248300075531006,
        30.760499954223633,
        4.370100021362305
      ],
      "type": "VEC3",
      "bufferView": 0,
      "byteOffset": 189720
    },
    {
      "name": "J3_1-Mesh_0_normals",
      "componentType": 5126,
      "count": 7908,
      "min": [
        -1,
        -1,
        -1
      ],
      "max": [
        1,
        1,
        0.9999998807907104
      ],
      "type": "VEC3",
      "bufferView": 1,
      "byteOffset": 189720
    },
    {
      "name": "J3_1-Mesh_0_indices",
      "componentType": 5123,
      "count": 7908,
      "min": [
        0
      ],
      "max": [
        7907
      ],
      "type": "SCALAR",
      "bufferView": 2,
      "byteOffset": 31620
    },
    {
      "name": "J4_1-Mesh_0_positions",
      "componentType": 5126,
      "count": 1500,
      "min": [
        -5.708700180053711,
        25.42799949645996,
        -2.519700050354004
      ],
      "max": [
        2.6770999431610107,
        33.81890106201172,
        2.854300022125244
      ],
      "type": "VEC3",
      "bufferView": 0,
      "byteOffset": 284616
    },
    {
      "name": "J4_1-Mesh_0_normals",
      "componentType": 5126,
      "count": 1500,
      "min": [
        -1,
        -1,
        -1
      ],
      "max": [
        0.9999843239784241,
        1,
        0.9999972581863403
      ],
      "type": "VEC3",
      "bufferView": 1,
      "byteOffset": 284616
    },
    {
      "name": "J4_1-Mesh_0_indices",
      "componentType": 5123,
      "count": 1500,
      "min": [
        0
      ],
      "max": [
        1499
      ],
      "type": "SCALAR",
      "bufferView": 2,
      "byteOffset": 47436
    },
    {
      "name": "J4_2-Mesh_0_positions",
      "componentType": 5126,
      "count": 5994,
      "min": [
        -4.210999965667725,
        29.605499267578125,
        -2.401599884033203
      ],
      "max": [
        2.674999952316284,
        33.69919967651367,
        2.401599884033203
      ],
      "type": "VEC3",
      "bufferView": 0,
      "byteOffset": 302616
    },
    {
      "name": "J4_2-Mesh_0_normals",
      "componentType": 5126,
      "count": 5994,
      "min": [
        -0.9936544895172119,
        -0.9999999403953552,
        -1
      ],
      "max": [
        1,
        1,
        0.9990379810333252
      ],
      "type": "VEC3",
      "bufferView": 1,
      "byteOffset": 302616
    },
    {
      "name": "J4_2-Mesh_0_indices",
      "componentType": 5123,
      "count": 5994,
      "min": [
        0
      ],
      "max": [
        5993
      ],
      "type": "SCALAR",
      "bufferView": 2,
      "byteOffset": 50436
    },
    {
      "name": "J5_3-Mesh_0_positions",
      "componentType": 5126,
      "count": 1500,
      "min": [
        -21.218900680541992,
        29.5669002532959,
        -3.4444000720977783
      ],
      "max": [
        -12.87399959564209,
        33.70029830932617,
        -2.6575000286102295
      ],
      "type": "VEC3",
      "bufferView": 0,
      "byteOffset": 374544
    },
    {
      "name": "J5_3-Mesh_0_normals",
      "componentType": 5126,
      "count": 1500,
      "min": [
        -0.9999679327011108,
        -1,
        -0.9998781085014343
      ],
      "max": [
        1,
        1,
        0.9998874664306641
      ],
      "type": "VEC3",
      "bufferView": 1,
      "byteOffset": 374544
    },
    {
      "name": "J5_3-Mesh_0_indices",
      "componentType": 5123,
      "count": 1500,
      "min": [
        0
      ],
      "max": [
        1499
      ],
      "type": "SCALAR",
      "bufferView": 2,
      "byteOffset": 62424
    },
    {
      "name": "J5_1-Mesh_0_positions",
      "componentType": 5126,
      "count": 9000,
      "min": [
        -21.221900939941406,
        29.5669002532959,
        -3.429500102996826
      ],
      "max": [
        -5.669300079345703,
        34.48820114135742,
        3.441999912261963
      ],
      "type": "VEC3",
      "bufferView": 0,
      "byteOffset": 392544
    },
    {
      "name": "J5_1-Mesh_0_normals",
      "componentType": 5126,
      "count": 9000,
      "min": [
        -1,
        -1,
        -1
      ],
      "max": [
        1,
        1,
        1
      ],
      "type": "VEC3",
      "bufferView": 1,
      "byteOffset": 392544
    },
    {
      "name": "J5_1-Mesh_0_indices",
      "componentType": 5123,
      "count": 9000,
      "min": [
        0
      ],
      "max": [
        8999
      ],
      "type": "SCALAR",
      "bufferView": 2,
      "byteOffset": 65424
    },
    {
      "name": "J5_2-Mesh_0_positions",
      "componentType": 5126,
      "count": 1500,
      "min": [
        -21.216400146484375,
        29.566999435424805,
        2.6575000286102295
      ],
      "max": [
        -12.87399959564209,
        33.700801849365234,
        3.4444000720977783
      ],
      "type": "VEC3",
      "bufferView": 0,
      "byteOffset": 500544
    },
    {
      "name": "J5_2-Mesh_0_normals",
      "componentType": 5126,
      "count": 1500,
      "min": [
        -0.9999078512191772,
        -1,
        -0.9999817609786987
      ],
      "max": [
        1,
        1,
        0.9999986886978149
      ],
      "type": "VEC3",
      "bufferView": 1,
      "byteOffset": 500544
    },
    {
      "name": "J5_2-Mesh_0_indices",
      "componentType": 5123,
      "count": 1500,
      "min": [
        0
      ],
      "max": [
        1499
      ],
      "type": "SCALAR",
      "bufferView": 2,
      "byteOffset": 83424
    },
    {
      "name": "J6_1-Mesh_0_positions",
      "componentType": 5126,
      "count": 7908,
      "min": [
        -23.366100311279297,
        29.586700439453125,
        -1.6101000308990479
      ],
      "max": [
        -16.596099853515625,
        33.680599212646484,
        1.6101000308990479
      ],
      "type": "VEC3",
      "bufferView": 0,
      "byteOffset": 518544
    },
    {
      "name": "J6_1-Mesh_0_normals",
      "componentType": 5126,
      "count": 7908,
      "min": [
        -1,
        -1,
        -0.9999999403953552
      ],
      "max": [
        1,
        1,
        1
      ],
      "type": "VEC3",
      "bufferView": 1,
      "byteOffset": 518544
    },
    {
      "name": "J6_1-Mesh_0_indices",
      "componentType": 5123,
      "count": 7908,
      "min": [
        0
      ],
      "max": [
        7907
      ],
      "type": "SCALAR",
      "bufferView": 2,
      "byteOffset": 86424
    },
    {
      "name": "J6_2-Mesh_0_positions",
      "componentType": 5126,
      "count": 3954,
      "min": [
        -23.838600158691406,
        30.6117000579834,
        -1.0850000381469727
      ],
      "max": [
        -23.366100311279297,
        32.77579879760742,
        1.0850000381469727
      ],
      "type": "VEC3",
      "bufferView": 0,
      "byteOffset": 613440
    },
    {
      "name": "J6_2-Mesh_0_normals",
      "componentType": 5126,
      "count": 3954,
      "min": [
        -1,
        -0.9998583793640137,
        -0.9999985694885254
      ],
      "max": [
        1,
        0.999969482421875,
        0.9999226927757263
      ],
      "type": "VEC3",
      "bufferView": 1,
      "byteOffset": 613440
    },
    {
      "name": "J6_2-Mesh_0_indices",
      "componentType": 5123,
      "count": 3954,
      "min": [
        0
      ],
      "max": [
        3953
      ],
      "type": "SCALAR",
      "bufferView": 2,
      "byteOffset": 102240
    },
    {
      "name": "J7_4-Mesh_0_positions",
      "componentType": 5126,
      "count": 8400,
      "min": [
        -33.9827995300293,
        31.657400131225586,
        -1.920300006866455
      ],
      "max": [
        -25.35300064086914,
        32.58649826049805,
        1.4345999956130981
      ],
      "type": "VEC3",
      "bufferView": 0,
      "byteOffset": 660888
    },
    {
      "name": "J7_4-Mesh_0_normals",
      "componentType": 5126,
      "count": 8400,
      "min": [
        -0.9999814629554749,
        -1,
        -0.9999430775642395
      ],
      "max": [
        0.9999805688858032,
        1,
        0.9999805092811584
      ],
      "type": "VEC3",
      "bufferView": 1,
      "byteOffset": 660888
    },
    {
      "name": "J7_4-Mesh_0_indices",
      "componentType": 5123,
      "count": 8400,
      "min": [
        0
      ],
      "max": [
        8399
      ],
      "type": "SCALAR",
      "bufferView": 2,
      "byteOffset": 110148
    },
    {
      "name": "J7_1-Mesh_0_positions",
      "componentType": 5126,
      "count": 3360,
      "min": [
        -24.329700469970703,
        30.069400787353516,
        -1.0700000524520874
      ],
      "max": [
        -23.87969970703125,
        33.068599700927734,
        1.027899980545044
      ],
      "type": "VEC3",
      "bufferView": 0,
      "byteOffset": 761688
    },
    {
      "name": "J7_1-Mesh_0_normals",
      "componentType": 5126,
      "count": 3360,
      "min": [
        -0.9999988675117493,
        -0.9999914765357971,
        -1
      ],
      "max": [
        0.9999988675117493,
        0.9999998807907104,
        1
      ],
      "type": "VEC3",
      "bufferView": 1,
      "byteOffset": 761688
    },
    {
      "name": "J7_1-Mesh_0_indices",
      "componentType": 5123,
      "count": 3360,
      "min": [
        0
      ],
      "max": [
        3359
      ],
      "type": "SCALAR",
      "bufferView": 2,
      "byteOffset": 126948
    },
    {
      "name": "J7_2-Mesh_0_positions",
      "componentType": 5126,
      "count": 3438,
      "min": [
        -24.509700775146484,
        28.86989974975586,
        -1.5211000442504883
      ],
      "max": [
        -24.329700469970703,
        34.26900100708008,
        1.4789999723434448
      ],
      "type": "VEC3",
      "bufferView": 0,
      "byteOffset": 802008
    },
    {
      "name": "J7_2-Mesh_0_normals",
      "componentType": 5126,
      "count": 3438,
      "min": [
        -1,
        -1,
        -1
      ],
      "max": [
        1,
        1,
        1
      ],
      "type": "VEC3",
      "bufferView": 1,
      "byteOffset": 802008
    },
    {
      "name": "J7_2-Mesh_0_indices",
      "componentType": 5123,
      "count": 3438,
      "min": [
        0
      ],
      "max": [
        3437
      ],
      "type": "SCALAR",
      "bufferView": 2,
      "byteOffset": 133668
    },
    {
      "name": "J7_3-Mesh_0_positions",
      "componentType": 5126,
      "count": 3402,
      "min": [
        -34.919700622558594,
        31.477500915527344,
        -1.5211000442504883
      ],
      "max": [
        -24.419700622558594,
        31.657499313354492,
        1.4789999723434448
      ],
      "type": "VEC3",
      "bufferView": 0,
      "byteOffset": 843264
    },
    {
      "name": "J7_3-Mesh_0_normals",
      "componentType": 5126,
      "count": 3402,
      "min": [
        -1,
        -1,
        -1
      ],
      "max": [
        1,
        1,
        1
      ],
      "type": "VEC3",
      "bufferView": 1,
      "byteOffset": 843264
    },
    {
      "name": "J7_3-Mesh_0_indices",
      "componentType": 5123,
      "count": 3402,
      "min": [
        0
      ],
      "max": [
        3401
      ],
      "type": "SCALAR",
      "bufferView": 2,
      "byteOffset": 140544
    },
    {
      "name": "J7_5-Mesh_0_positions",
      "componentType": 5126,
      "count": 8412,
      "min": [
        -33.9827995300293,
        30.548500061035156,
        -1.920300006866455
      ],
      "max": [
        -25.346900939941406,
        31.477699279785156,
        1.4378000497817993
      ],
      "type": "VEC3",
      "bufferView": 0,
      "byteOffset": 884088
    },
    {
      "name": "J7_5-Mesh_0_normals",
      "componentType": 5126,
      "count": 8412,
      "min": [
        -0.9999715089797974,
        -1,
        -0.999941349029541
      ],
      "max": [
        0.9999776482582092,
        1,
        0.9999884366989136
      ],
      "type": "VEC3",
      "bufferView": 1,
      "byteOffset": 884088
    },
    {
      "name": "J7_5-Mesh_0_indices",
      "componentType": 5123,
      "count": 8412,
      "min": [
        0
      ],
      "max": [
        8411
      ],
      "type": "SCALAR",
      "bufferView": 2,
      "byteOffset": 147348
    },
    {
      "name": "J5_4-Mesh_0_positions",
      "componentType": 5126,
      "count": 8778,
      "min": [
        -19.13789939880371,
        31.394699096679688,
        -3.5028998851776123
      ],
      "max": [
        -14.022600173950195,
        32.43980026245117,
        -3.5028998851776123
      ],
      "type": "VEC3",
      "bufferView": 0,
      "byteOffset": 985032
    },
    {
      "name": "J5_4-Mesh_0_normals",
      "componentType": 5126,
      "count": 8778,
      "min": [
        0,
        0,
        -1
      ],
      "max": [
        0,
        0,
        1
      ],
      "type": "VEC3",
      "bufferView": 1,
      "byteOffset": 985032
    },
    {
      "name": "J5_4-Mesh_0_indices",
      "componentType": 5123,
      "count": 8778,
      "min": [
        0
      ],
      "max": [
        8777
      ],
      "type": "SCALAR",
      "bufferView": 2,
      "byteOffset": 164172
    },
    {
      "name": "J5_5-Mesh_0_positions",
      "componentType": 5126,
      "count": 8778,
      "min": [
        -19.137800216674805,
        31.394699096679688,
        3.4605000019073486
      ],
      "max": [
        -14.022700309753418,
        32.43980026245117,
        3.507499933242798
      ],
      "type": "VEC3",
      "bufferView": 0,
      "byteOffset": 1090368
    },
    {
      "name": "J5_5-Mesh_0_normals",
      "componentType": 5126,
      "count": 8778,
      "min": [
        -0.009199610911309719,
        -1.1266274389227367e-18,
        -0.9999576807022095
      ],
      "max": [
        0.009199610911309719,
        1.1266274389227367e-18,
        0.9999576807022095
      ],
      "type": "VEC3",
      "bufferView": 1,
      "byteOffset": 1090368
    },
    {
      "name": "J5_5-Mesh_0_indices",
      "componentType": 5123,
      "count": 8778,
      "min": [
        0
      ],
      "max": [
        8777
      ],
      "type": "SCALAR",
      "bufferView": 2,
      "byteOffset": 181728
    }
  ],
  "asset": {
    "generator": "obj2gltf",
    "version": "2.0"
  },
  "buffers": [
    {
      "name": "model",
      "byteLength": 2590692,
      "uri": "data:application/octet-stream;base64,"
    }
  ],
  "bufferViews": [
    {
      "name": "bufferView_0",
      "buffer": 0,
      "byteLength": 1195704,
      "byteOffset": 0,
      "byteStride": 12,
      "target": 34962
    },
    {
      "name": "bufferView_1",
      "buffer": 0,
      "byteLength": 1195704,
      "byteOffset": 1195704,
      "byteStride": 12,
      "target": 34962
    },
    {
      "name": "bufferView_2",
      "buffer": 0,
      "byteLength": 199284,
      "byteOffset": 2391408,
      "target": 34963
    }
  ],
  "materials": [
    {
      "name": "wire_224198087",
      "pbrMetallicRoughness": {
        "baseColorFactor": [
          0.5,
          0.5,
          0.5,
          1
        ],
        "metallicFactor": 0,
        "roughnessFactor": 1
      },
      "emissiveFactor": [
        0,
        0,
        0
      ],
      "alphaMode": "OPAQUE",
      "doubleSided": false
    },
    {
      "name": "wire_134110008",
      "pbrMetallicRoughness": {
        "baseColorFactor": [
          0.5,
          0.5,
          0.5,
          1
        ],
        "metallicFactor": 0,
        "roughnessFactor": 1
      },
      "emissiveFactor": [
        0,
        0,
        0
      ],
      "alphaMode": "OPAQUE",
      "doubleSided": false
    },
    {
      "name": "wire_134006006",
      "pbrMetallicRoughness": {
        "baseColorFactor": [
          0.5,
          0.5,
          0.5,
          1
        ],
        "metallicFactor": 0,
        "roughnessFactor": 1
      },
      "emissiveFactor": [
        0,
        0,
        0
      ],
      "alphaMode": "OPAQUE",
      "doubleSided": false
    },
    {
      "name": "Material__29",
      "pbrMetallicRoughness": {
        "baseColorFactor": [
          0.5,
          0.5,
          0.5,
          1
        ],
        "metallicFactor": 0,
        "roughnessFactor": 1
      },
      "emissiveFactor": [
        0,
        0,
        0
      ],
      "alphaMode": "OPAQUE",
      "doubleSided": false
    },
    {
      "name": "Material__33",
      "pbrMetallicRoughness": {
        "baseColorFactor": [
          0.5,
          0.5,
          0.5,
          1
        ],
        "metallicFactor": 0,
        "roughnessFactor": 1
      },
      "emissiveFactor": [
        0,
        0,
        0
      ],
      "alphaMode": "OPAQUE",
      "doubleSided": false
    },
    {
      "name": "wire_255255255",
      "pbrMetallicRoughness": {
        "baseColorFactor": [
          0.5,
          0.5,
          0.5,
          1
        ],
        "metallicFactor": 0,
        "roughnessFactor": 1
      },
      "emissiveFactor": [
        0,
        0,
        0
      ],
      "alphaMode": "OPAQUE",
      "doubleSided": false
    }
  ],
  "meshes": [
    {
      "name": "J1_1-Mesh",
      "primitives": [
        {
          "attributes": {
            "POSITION": 0,
            "NORMAL": 1
          },
          "indices": 2,
          "material": 0,
          "mode": 4
        }
      ]
    },
    {
      "name": "J2_1-Mesh",
      "primitives": [
        {
          "attributes": {
            "POSITION": 3,
            "NORMAL": 4
          },
          "indices": 5,
          "material": 1,
          "mode": 4
        }
      ]
    },
    {
      "name": "J3_1-Mesh",
      "primitives": [
        {
          "attributes": {
            "POSITION": 6,
            "NORMAL": 7
          },
          "indices": 8,
          "material": 1,
          "mode": 4
        }
      ]
    },
    {
      "name": "J4_1-Mesh",
      "primitives": [
        {
          "attributes": {
            "POSITION": 9,
            "NORMAL": 10
          },
          "indices": 11,
          "material": 1,
          "mode": 4
        }
      ]
    },
    {
      "name": "J4_2-Mesh",
      "primitives": [
        {
          "attributes": {
            "POSITION": 12,
            "NORMAL": 13
          },
          "indices": 14,
          "material": 0,
          "mode": 4
        }
      ]
    },
    {
      "name": "J5_3-Mesh",
      "primitives": [
        {
          "attributes": {
            "POSITION": 15,
            "NORMAL": 16
          },
          "indices": 17,
          "material": 0,
          "mode": 4
        }
      ]
    },
    {
      "name": "J5_1-Mesh",
      "primitives": [
        {
          "attributes": {
            "POSITION": 18,
            "NORMAL": 19
          },
          "indices": 20,
          "material": 1,
          "mode": 4
        }
      ]
    },
    {
      "name": "J5_2-Mesh",
      "primitives": [
        {
          "attributes": {
            "POSITION": 21,
            "NORMAL": 22
          },
          "indices": 23,
          "material": 0,
          "mode": 4
        }
      ]
    },
    {
      "name": "J6_1-Mesh",
      "primitives": [
        {
          "attributes": {
            "POSITION": 24,
            "NORMAL": 25
          },
          "indices": 26,
          "material": 1,
          "mode": 4
        }
      ]
    },
    {
      "name": "J6_2-Mesh",
      "primitives": [
        {
          "attributes": {
            "POSITION": 27,
            "NORMAL": 28
          },
          "indices": 29,
          "material": 2,
          "mode": 4
        }
      ]
    },
    {
      "name": "J7_4-Mesh",
      "primitives": [
        {
          "attributes": {
            "POSITION": 30,
            "NORMAL": 31
          },
          "indices": 32,
          "material": 3,
          "mode": 4
        }
      ]
    },
    {
      "name": "J7_1-Mesh",
      "primitives": [
        {
          "attributes": {
            "POSITION": 33,
            "NORMAL": 34
          },
          "indices": 35,
          "material": 4,
          "mode": 4
        }
      ]
    },
    {
      "name": "J7_2-Mesh",
      "primitives": [
        {
          "attributes": {
            "POSITION": 36,
            "NORMAL": 37
          },
          "indices": 38,
          "material": 3,
          "mode": 4
        }
      ]
    },
    {
      "name": "J7_3-Mesh",
      "primitives": [
        {
          "attributes": {
            "POSITION": 39,
            "NORMAL": 40
          },
          "indices": 41,
          "material": 2,
          "mode": 4
        }
      ]
    },
    {
      "name": "J7_5-Mesh",
      "primitives": [
        {
          "attributes": {
            "POSITION": 42,
            "NORMAL": 43
          },
          "indices": 44,
          "material": 3,
          "mode": 4
        }
      ]
    },
    {
      "name": "J5_4-Mesh",
      "primitives": [
        {
          "attributes": {
            "POSITION": 45,
            "NORMAL": 46
          },
          "indices": 47,
          "material": 5,
          "mode": 4
        }
      ]
    },
    {
      "name": "J5_5-Mesh",
      "primitives": [
        {
          "attributes": {
            "POSITION": 48,
            "NORMAL": 49
          },
          "indices": 50,
          "material": 5,
          "mode": 4
        }
      ]
    }
  ],
  "nodes": [
    {
      "name": "J1_1",
      "mesh": 0
    },
    {
      "name": "J2_1",
      "mesh": 1
    },
    {
      "name": "J3_1",
      "mesh": 2
    },
    {
      "name": "J4_1",
      "mesh": 3
    },
    {
      "name": "J4_2",
      "mesh": 4
    },
    {
      "name": "J5_3",
      "mesh": 5
    },
    {
      "name": "J5_1",
      "mesh": 6
    },
    {
      "name": "J5_2",
      "mesh": 7
    },
    {
      "name": "J6_1",
      "mesh": 8
    },
    {
      "name": "J6_2",
      "mesh": 9
    },
    {
      "name": "J7_4",
      "mesh": 10
    },
    {
      "name": "J7_1",
      "mesh": 11
    },
    {
      "name": "J7_2",
      "mesh": 12
    },
    {
      "name": "J7_3",
      "mesh": 13
    },
    {
      "name": "J7_5",
      "mesh": 14
    },
    {
      "name": "J5_4",
      "mesh": 15
    },
    {
      "name": "J5_5",
      "mesh": 16
    }
  ],
  "scene": 0,
  "scenes": [
    {
      "nodes": [
        0,
        1,
        2,
        3,
        4,
        5,
        6,
        7,
        8,
        9,
        10,
        11,
        12,
        13,
        14,
        15,
        16
      ]
    }
  ]
}
